<svg width="657.9px" height="122px" xmlns="http://www.w3.org/2000/svg" viewBox="-78.94687499999998 14 657.89375 122" style="background: rgba(0, 0, 0, 0)" preserveAspectRatio="xMidYMid"><defs><linearGradient id="editing-gradient-gradient" x1="0" x2="1" y1="0.5" y2="0.5" gradientUnits="objectBoundingBox"><stop offset="0" stop-color="#344abb"></stop><stop offset="1" stop-color="#5c8b11"></stop></linearGradient></defs><g><g transform="matrix(1.4,0,0,1.4,-60.1,161.9)"><path d="M 5.1 -44.3 L -8.9 -44.3 L -0.8 -86.5 L 13.3 -86.5 L 5.1 -44.3 Z M 60.8 -43 L 60.8 -43 L 60.8 -43 Q 53.1 -43 53.1 -49 L 53.1 -49 L 53.1 -49 Q 53.1 -51.6 54.2 -56.7 L 54.2 -56.7 L 54.2 -56.7 Q 55.3 -61.8 55.7 -63.8 L 55.7 -63.8 L 55.7 -63.8 Q 56.6 -68.5 56.6 -70 L 56.6 -70 L 56.6 -70 Q 56.6 -73.2 54.2 -73.2 L 54.2 -73.2 L 54.2 -73.2 Q 52.6 -73.2 51 -71 L 51 -71 L 51 -71 Q 49.5 -68.8 48.8 -64.4 L 48.8 -64.4 L 44.8 -44.3 L 32.3 -43 L 35.8 -60.4 L 35.8 -60.4 Q 36.4 -63.3 36.9 -66.5 L 36.9 -66.5 L 36.9 -66.5 Q 37.4 -69.8 37.4 -70.3 L 37.4 -70.3 L 37.4 -70.3 Q 37.4 -73.2 35.2 -73.2 L 35.2 -73.2 L 35.2 -73.2 Q 33.7 -73.2 32.1 -71.1 L 32.1 -71.1 L 32.1 -71.1 Q 30.5 -68.9 29.6 -64.4 L 29.6 -64.4 L 25.7 -44.3 L 13.1 -43 L 19.9 -76.9 L 30.3 -78.2 L 29.2 -71.7 L 29.2 -71.7 Q 30.9 -75.2 33.9 -76.7 L 33.9 -76.7 L 33.9 -76.7 Q 37 -78.2 41.8 -78.2 L 41.8 -78.2 L 41.8 -78.2 Q 44.6 -78.2 46.4 -76.8 L 46.4 -76.8 L 46.4 -76.8 Q 48.1 -75.5 48.7 -73.3 L 48.7 -73.3 L 48.7 -73.3 Q 49.8 -75.6 52.6 -76.9 L 52.6 -76.9 L 52.6 -76.9 Q 55.4 -78.2 58.8 -78.2 L 58.8 -78.2 L 58.8 -78.2 Q 62.2 -78.2 63.9 -77.4 L 63.9 -77.4 L 63.9 -77.4 Q 65.6 -76.7 66.6 -75.5 L 66.6 -75.5 L 66.6 -75.5 Q 68.4 -73.2 68.4 -69.2 L 68.4 -69.2 L 68.4 -69.2 Q 68.4 -65.1 66.6 -56.7 L 66.6 -56.7 L 66.6 -56.7 Q 65.7 -52.6 65.7 -51.1 L 65.7 -51.1 L 65.7 -51.1 Q 65.7 -49.6 66.6 -48.7 L 66.6 -48.7 L 66.6 -48.7 Q 67.5 -47.8 68.8 -47.7 L 68.8 -47.7 L 68.8 -47.7 Q 68.1 -45.5 65.9 -44.3 L 65.9 -44.3 L 65.9 -44.3 Q 63.7 -43 60.8 -43 Z M 76.5 -46.2 L 76.5 -46.2 L 76.5 -46.2 Q 75 -47.8 74.3 -50.5 L 74.3 -50.5 L 74.3 -50.5 Q 73.6 -53.1 73.6 -57.4 L 73.6 -57.4 L 73.6 -57.4 Q 73.6 -61.7 75.1 -65.6 L 75.1 -65.6 L 75.1 -65.6 Q 76.6 -69.5 79.2 -72.3 L 79.2 -72.3 L 79.2 -72.3 Q 84.8 -78.2 93.8 -78.2 L 93.8 -78.2 L 93.8 -78.2 Q 97.1 -78.2 99.5 -77.1 L 99.5 -77.1 L 110.4 -78.2 L 105.7 -53.2 L 105.7 -53.2 Q 105.5 -52.4 105.5 -51 L 105.5 -51 L 105.5 -51 Q 105.5 -49.6 106.4 -48.7 L 106.4 -48.7 L 106.4 -48.7 Q 107.2 -47.8 108.5 -47.7 L 108.5 -47.7 L 108.5 -47.7 Q 107.9 -45.5 105.5 -44.3 L 105.5 -44.3 L 105.5 -44.3 Q 103.2 -43 100.6 -43 L 100.6 -43 L 100.6 -43 Q 97.9 -43 96.2 -44 L 96.2 -44 L 96.2 -44 Q 94.4 -45 93.9 -46.6 L 93.9 -46.6 L 93.9 -46.6 Q 92.9 -45 90.7 -44 L 90.7 -44 L 90.7 -44 Q 88.5 -43 85.6 -43 L 85.6 -43 L 85.6 -43 Q 82.7 -43 80.3 -43.7 L 80.3 -43.7 L 80.3 -43.7 Q 78 -44.5 76.5 -46.2 Z M 90 -72.2 L 90 -72.2 L 90 -72.2 Q 89.2 -71 88.6 -69.1 L 88.6 -69.1 L 88.6 -69.1 Q 88 -67.1 86.9 -61.9 L 86.9 -61.9 L 86.9 -61.9 Q 85.8 -56.7 85.8 -53 L 85.8 -53 L 85.8 -53 Q 85.8 -49.2 86.4 -48.2 L 86.4 -48.2 L 86.4 -48.2 Q 87 -47.1 88 -47.1 L 88 -47.1 L 88 -47.1 Q 90.1 -47.1 91.6 -49 L 91.6 -49 L 91.6 -49 Q 93.1 -51 93.6 -54.4 L 93.6 -54.4 L 97 -73.2 L 97 -73.2 Q 95.7 -74.3 94.1 -74.3 L 94.1 -74.3 L 94.1 -74.3 Q 92.6 -74.3 91.6 -73.8 L 91.6 -73.8 L 91.6 -73.8 Q 90.7 -73.3 90 -72.2 Z M 118.2 -71 L 118.2 -71 L 118.2 -71 Q 120.3 -74.1 123.6 -76.1 L 123.6 -76.1 L 123.6 -76.1 Q 126.9 -78.2 131 -78.2 L 131 -78.2 L 131 -78.2 Q 135 -78.2 136.9 -76.9 L 136.9 -76.9 L 149.5 -78.2 L 145.1 -53.6 L 145.1 -53.6 Q 142.9 -41.1 138.1 -36.1 L 138.1 -36.1 L 138.1 -36.1 Q 133.6 -31.5 124.8 -31.5 L 124.8 -31.5 L 124.8 -31.5 Q 118 -31.5 114.2 -33.6 L 114.2 -33.6 L 114.2 -33.6 Q 110.4 -35.7 110.4 -39.2 L 110.4 -39.2 L 110.4 -39.2 Q 110.4 -41.8 112.3 -43.3 L 112.3 -43.3 L 112.3 -43.3 Q 114.3 -44.8 117.4 -44.8 L 117.4 -44.8 L 117.4 -44.8 Q 120.1 -44.8 122.1 -43.6 L 122.1 -43.6 L 122.1 -43.6 Q 123.3 -43 123.9 -42.1 L 123.9 -42.1 L 123.9 -42.1 Q 122.4 -40.8 122.4 -38.7 L 122.4 -38.7 L 122.4 -38.7 Q 122.4 -35.9 125 -35.9 L 125 -35.9 L 125 -35.9 Q 129.3 -35.9 131.7 -46 L 131.7 -46 L 131.7 -46 Q 132.4 -48.8 133 -51.6 L 133 -51.6 L 133 -51.6 Q 130.1 -48 123.6 -48 L 123.6 -48 L 123.6 -48 Q 119.1 -48 116.4 -50.2 L 116.4 -50.2 L 116.4 -50.2 Q 113.8 -52.4 113.8 -57.5 L 113.8 -57.5 L 113.8 -57.5 Q 113.8 -60.7 114.9 -64.3 L 114.9 -64.3 L 114.9 -64.3 Q 116 -67.9 118.2 -71 Z M 126.5 -57.3 L 126.5 -57.3 L 126.5 -57.3 Q 126.5 -53 128.7 -53 L 128.7 -53 L 128.7 -53 Q 130.3 -53 131.7 -54.6 L 131.7 -54.6 L 131.7 -54.6 Q 132.9 -56 133.3 -58 L 133.3 -58 L 136.6 -74.4 L 136.6 -74.4 Q 136.3 -74.5 136 -74.6 L 136 -74.6 L 136 -74.6 Q 135.3 -74.8 134.5 -74.8 L 134.5 -74.8 L 134.5 -74.8 Q 130.6 -74.8 128.3 -68.4 L 128.3 -68.4 L 128.3 -68.4 Q 126.5 -63.5 126.5 -57.3 Z M 177.9 -55.1 L 177.9 -55.1 L 177.9 -55.1 Q 179.5 -54 179.5 -51.6 L 179.5 -51.6 L 179.5 -51.6 Q 179.5 -49.2 178.3 -47.6 L 178.3 -47.6 L 178.3 -47.6 Q 177 -46.1 175.1 -45.1 L 175.1 -45.1 L 175.1 -45.1 Q 171 -43 166.5 -43 L 166.5 -43 L 166.5 -43 Q 162.1 -43 159.5 -43.9 L 159.5 -43.9 L 159.5 -43.9 Q 156.9 -44.9 155.2 -46.7 L 155.2 -46.7 L 155.2 -46.7 Q 151.8 -50.1 151.8 -56.3 L 151.8 -56.3 L 151.8 -56.3 Q 151.8 -66 157.1 -71.8 L 157.1 -71.8 L 157.1 -71.8 Q 162.7 -78.2 172.5 -78.2 L 172.5 -78.2 L 172.5 -78.2 Q 178.6 -78.2 181.6 -75.6 L 181.6 -75.6 L 181.6 -75.6 Q 183.8 -73.7 183.8 -70.6 L 183.8 -70.6 L 183.8 -70.6 Q 183.8 -59.3 164.4 -59.3 L 164.4 -59.3 L 164.4 -59.3 Q 164.1 -57.6 164.1 -56.2 L 164.1 -56.2 L 164.1 -56.2 Q 164.1 -53.3 165.4 -52.2 L 165.4 -52.2 L 165.4 -52.2 Q 166.7 -51 169.2 -51 L 169.2 -51 L 169.2 -51 Q 171.6 -51 174.2 -52.2 L 174.2 -52.2 L 174.2 -52.2 Q 176.8 -53.3 177.9 -55.1 Z M 164.8 -62 L 164.8 -62 L 164.8 -62 Q 169.4 -62 172 -64.9 L 172 -64.9 L 172 -64.9 Q 174.6 -67.6 174.6 -71.8 L 174.6 -71.8 L 174.6 -71.8 Q 174.6 -73.3 174.1 -74.1 L 174.1 -74.1 L 174.1 -74.1 Q 173.5 -74.9 172.4 -74.9 L 172.4 -74.9 L 172.4 -74.9 Q 171.3 -74.9 170.4 -74.5 L 170.4 -74.5 L 170.4 -74.5 Q 169.5 -74.1 168.5 -72.7 L 168.5 -72.7 L 168.5 -72.7 Q 166.2 -69.5 164.8 -62 Z M 205.1 -66.7 L 205.1 -66.7 L 205.1 -66.7 Q 206 -69.1 206 -71.1 L 206 -71.1 L 206 -71.1 Q 206 -74.9 203 -74.9 L 203 -74.9 L 203 -74.9 Q 201.4 -74.9 200 -73.5 L 200 -73.5 L 200 -73.5 Q 198.7 -72 198.7 -70.2 L 198.7 -70.2 L 198.7 -70.2 Q 198.7 -69 199.8 -67.9 L 199.8 -67.9 L 199.8 -67.9 Q 201.2 -66.5 205 -64.2 L 205 -64.2 L 205 -64.2 Q 208.8 -61.9 210.2 -60 L 210.2 -60 L 210.2 -60 Q 211.7 -58.1 211.7 -55.6 L 211.7 -55.6 L 211.7 -55.6 Q 211.7 -53 210.4 -50.6 L 210.4 -50.6 L 210.4 -50.6 Q 209.2 -48.2 206.9 -46.6 L 206.9 -46.6 L 206.9 -46.6 Q 202.1 -43 194.4 -43 L 194.4 -43 L 194.4 -43 Q 190.3 -43 187.1 -45.2 L 187.1 -45.2 L 187.1 -45.2 Q 183.9 -47.3 183.9 -49.8 L 183.9 -49.8 L 183.9 -49.8 Q 183.9 -52.3 185.7 -53.7 L 185.7 -53.7 L 185.7 -53.7 Q 187.5 -55.2 190.2 -55.2 L 190.2 -55.2 L 190.2 -55.2 Q 192.9 -55.2 194.6 -54.2 L 194.6 -54.2 L 194.6 -54.2 Q 193.7 -52.1 193.7 -50.7 L 193.7 -50.7 L 193.7 -50.7 Q 193.7 -46.4 197.3 -46.4 L 197.3 -46.4 L 197.3 -46.4 Q 198.9 -46.4 199.9 -47.4 L 199.9 -47.4 L 199.9 -47.4 Q 200.9 -48.4 200.9 -50 L 200.9 -50 L 200.9 -50 Q 200.9 -53.3 195.4 -56.7 L 195.4 -56.7 L 195.4 -56.7 Q 190.9 -59.7 189.9 -60.8 L 189.9 -60.8 L 189.9 -60.8 Q 188.2 -62.9 188.2 -65.4 L 188.2 -65.4 L 188.2 -65.4 Q 188.2 -68 189.4 -70.4 L 189.4 -70.4 L 189.4 -70.4 Q 190.6 -72.9 192.8 -74.6 L 192.8 -74.6 L 192.8 -74.6 Q 197.5 -78.2 205.6 -78.2 L 205.6 -78.2 L 205.6 -78.2 Q 209.8 -78.2 212.3 -76.5 L 212.3 -76.5 L 212.3 -76.5 Q 214.7 -74.8 214.7 -72 L 214.7 -72 L 214.7 -72 Q 214.7 -69.2 213 -67.6 L 213 -67.6 L 213 -67.6 Q 211.3 -66 208.3 -66 L 208.3 -66 L 208.3 -66 Q 206.2 -66 205.1 -66.7 Z M 256.2 -64.9 L 269.1 -66 L 269.1 -66 Q 264.5 -55.9 264.5 -44.2 L 264.5 -44.2 L 264.5 -44.2 Q 262.8 -43 260.3 -43 L 260.3 -43 L 260.3 -43 Q 257.7 -43 256.1 -44.2 L 256.1 -44.2 L 256.1 -44.2 Q 254.5 -45.3 254.2 -46.6 L 254.2 -46.6 L 254.2 -46.6 Q 252.6 -44.9 250 -43.9 L 250 -43.9 L 250 -43.9 Q 247.4 -43 244.7 -43 L 244.7 -43 L 244.7 -43 Q 241.9 -43 239.5 -43.9 L 239.5 -43.9 L 239.5 -43.9 Q 237.1 -44.8 235.3 -46.8 L 235.3 -46.8 L 235.3 -46.8 Q 231.2 -51.1 231.2 -59.4 L 231.2 -59.4 L 231.2 -59.4 Q 231.2 -72.2 238 -79.8 L 238 -79.8 L 238 -79.8 Q 245.1 -87.8 257.6 -87.8 L 257.6 -87.8 L 257.6 -87.8 Q 266.2 -87.8 269.3 -83.3 L 269.3 -83.3 L 269.3 -83.3 Q 270.2 -81.9 270.2 -80.2 L 270.2 -80.2 L 270.2 -80.2 Q 270.2 -78.5 269.5 -77.1 L 269.5 -77.1 L 269.5 -77.1 Q 268.8 -75.6 267.6 -74.5 L 267.6 -74.5 L 267.6 -74.5 Q 264.8 -71.9 261.5 -71.9 L 261.5 -71.9 L 261.5 -71.9 Q 260.1 -71.9 258.8 -72.4 L 258.8 -72.4 L 258.8 -72.4 Q 259.1 -74.3 259.1 -76.5 L 259.1 -76.5 L 259.1 -76.5 Q 259.1 -78.8 258.9 -79.8 L 258.9 -79.8 L 258.9 -79.8 Q 258.8 -80.8 258.4 -81.6 L 258.4 -81.6 L 258.4 -81.6 Q 257.6 -83.4 255.7 -83.4 L 255.7 -83.4 L 255.7 -83.4 Q 253.9 -83.4 251.9 -81.4 L 251.9 -81.4 L 251.9 -81.4 Q 249.9 -79.5 248.3 -76.3 L 248.3 -76.3 L 248.3 -76.3 Q 244.8 -69.1 244.8 -60.4 L 244.8 -60.4 L 244.8 -60.4 Q 244.8 -56.5 246.3 -53.7 L 246.3 -53.7 L 246.3 -53.7 Q 248 -50.6 250.9 -50.6 L 250.9 -50.6 L 250.9 -50.6 Q 251.9 -50.6 252.8 -51.1 L 252.8 -51.1 L 252.8 -51.1 Q 253.8 -51.6 254.2 -52 L 254.2 -52 L 256.2 -64.9 Z M 275.1 -46.2 L 275.1 -46.2 L 275.1 -46.2 Q 273.6 -47.8 272.9 -50.5 L 272.9 -50.5 L 272.9 -50.5 Q 272.2 -53.1 272.2 -57.4 L 272.2 -57.4 L 272.2 -57.4 Q 272.2 -61.7 273.7 -65.6 L 273.7 -65.6 L 273.7 -65.6 Q 275.2 -69.5 277.8 -72.3 L 277.8 -72.3 L 277.8 -72.3 Q 283.3 -78.2 292.4 -78.2 L 292.4 -78.2 L 292.4 -78.2 Q 295.7 -78.2 298.1 -77.1 L 298.1 -77.1 L 309 -78.2 L 304.3 -53.2 L 304.3 -53.2 Q 304.1 -52.4 304.1 -51 L 304.1 -51 L 304.1 -51 Q 304.1 -49.6 304.9 -48.7 L 304.9 -48.7 L 304.9 -48.7 Q 305.8 -47.8 307.1 -47.7 L 307.1 -47.7 L 307.1 -47.7 Q 306.4 -45.5 304.1 -44.3 L 304.1 -44.3 L 304.1 -44.3 Q 301.8 -43 299.2 -43 L 299.2 -43 L 299.2 -43 Q 296.5 -43 294.8 -44 L 294.8 -44 L 294.8 -44 Q 293 -45 292.5 -46.6 L 292.5 -46.6 L 292.5 -46.6 Q 291.5 -45 289.3 -44 L 289.3 -44 L 289.3 -44 Q 287.1 -43 284.2 -43 L 284.2 -43 L 284.2 -43 Q 281.3 -43 278.9 -43.7 L 278.9 -43.7 L 278.9 -43.7 Q 276.6 -44.5 275.1 -46.2 Z M 288.6 -72.2 L 288.6 -72.2 L 288.6 -72.2 Q 287.8 -71 287.2 -69.1 L 287.2 -69.1 L 287.2 -69.1 Q 286.5 -67.1 285.5 -61.9 L 285.5 -61.9 L 285.5 -61.9 Q 284.4 -56.7 284.4 -53 L 284.4 -53 L 284.4 -53 Q 284.4 -49.2 285 -48.2 L 285 -48.2 L 285 -48.2 Q 285.6 -47.1 286.6 -47.1 L 286.6 -47.1 L 286.6 -47.1 Q 288.7 -47.1 290.2 -49 L 290.2 -49 L 290.2 -49 Q 291.7 -51 292.2 -54.4 L 292.2 -54.4 L 295.6 -73.2 L 295.6 -73.2 Q 294.3 -74.3 292.7 -74.3 L 292.7 -74.3 L 292.7 -74.3 Q 291.2 -74.3 290.2 -73.8 L 290.2 -73.8 L 290.2 -73.8 Q 289.3 -73.3 288.6 -72.2 Z M 327.8 -47.8 L 327.8 -47.8 L 327.8 -47.8 Q 325.8 -43 319.4 -43 L 319.4 -43 L 319.4 -43 Q 316.2 -43 314.2 -45.2 L 314.2 -45.2 L 314.2 -45.2 Q 312.5 -47.1 312.5 -49.2 L 312.5 -49.2 L 312.5 -49.2 Q 312.5 -54 314.8 -64.5 L 314.8 -64.5 L 319.4 -89.1 L 332.4 -90.3 L 326.2 -58 L 326.2 -58 Q 325.1 -53.2 325.1 -51.6 L 325.1 -51.6 L 325.1 -51.6 Q 325.1 -47.9 327.8 -47.8 Z M 348.5 -47.8 L 348.5 -47.8 L 348.5 -47.8 Q 346.5 -43 340.2 -43 L 340.2 -43 L 340.2 -43 Q 337 -43 334.9 -45.2 L 334.9 -45.2 L 334.9 -45.2 Q 333.3 -47.1 333.3 -49.2 L 333.3 -49.2 L 333.3 -49.2 Q 333.3 -54 335.5 -64.5 L 335.5 -64.5 L 340.2 -89.1 L 353.2 -90.3 L 347 -58 L 347 -58 Q 345.9 -53.2 345.9 -51.6 L 345.9 -51.6 L 345.9 -51.6 Q 345.9 -47.9 348.5 -47.8 Z M 379.9 -55.1 L 379.9 -55.1 L 379.9 -55.1 Q 381.5 -54 381.5 -51.6 L 381.5 -51.6 L 381.5 -51.6 Q 381.5 -49.2 380.2 -47.6 L 380.2 -47.6 L 380.2 -47.6 Q 379 -46.1 377 -45.1 L 377 -45.1 L 377 -45.1 Q 372.9 -43 368.5 -43 L 368.5 -43 L 368.5 -43 Q 364.1 -43 361.5 -43.9 L 361.5 -43.9 L 361.5 -43.9 Q 358.9 -44.9 357.2 -46.7 L 357.2 -46.7 L 357.2 -46.7 Q 353.8 -50.1 353.8 -56.3 L 353.8 -56.3 L 353.8 -56.3 Q 353.8 -66 359.1 -71.8 L 359.1 -71.8 L 359.1 -71.8 Q 364.7 -78.2 374.5 -78.2 L 374.5 -78.2 L 374.5 -78.2 Q 380.6 -78.2 383.6 -75.6 L 383.6 -75.6 L 383.6 -75.6 Q 385.8 -73.7 385.8 -70.6 L 385.8 -70.6 L 385.8 -70.6 Q 385.8 -59.3 366.4 -59.3 L 366.4 -59.3 L 366.4 -59.3 Q 366.1 -57.6 366.1 -56.2 L 366.1 -56.2 L 366.1 -56.2 Q 366.1 -53.3 367.4 -52.2 L 367.4 -52.2 L 367.4 -52.2 Q 368.7 -51 371.2 -51 L 371.2 -51 L 371.2 -51 Q 373.6 -51 376.2 -52.2 L 376.2 -52.2 L 376.2 -52.2 Q 378.8 -53.3 379.9 -55.1 Z M 366.8 -62 L 366.8 -62 L 366.8 -62 Q 371.3 -62 374 -64.9 L 374 -64.9 L 374 -64.9 Q 376.6 -67.6 376.6 -71.8 L 376.6 -71.8 L 376.6 -71.8 Q 376.6 -73.3 376 -74.1 L 376 -74.1 L 376 -74.1 Q 375.5 -74.9 374.4 -74.9 L 374.4 -74.9 L 374.4 -74.9 Q 373.3 -74.9 372.4 -74.5 L 372.4 -74.5 L 372.4 -74.5 Q 371.5 -74.1 370.5 -72.7 L 370.5 -72.7 L 370.5 -72.7 Q 368.1 -69.5 366.8 -62 Z M 408 -62.2 L 408 -62.2 L 408 -62.2 Q 410.3 -66.3 410.3 -70.5 L 410.3 -70.5 L 410.3 -70.5 Q 410.3 -73.2 408.3 -73.2 L 408.3 -73.2 L 408.3 -73.2 Q 406.8 -73.2 405.2 -70.6 L 405.2 -70.6 L 405.2 -70.6 Q 403.5 -68 403 -64.6 L 403 -64.6 L 399.7 -44.3 L 386.4 -43 L 393 -76.9 L 403.5 -78.2 L 402.4 -71.7 L 402.4 -71.7 Q 405.5 -78.2 412.6 -78.2 L 412.6 -78.2 L 412.6 -78.2 Q 416.3 -78.2 418.3 -76.3 L 418.3 -76.3 L 418.3 -76.3 Q 420.3 -74.3 420.3 -70.4 L 420.3 -70.4 L 420.3 -70.4 Q 420.3 -66.5 417.7 -64 L 417.7 -64 L 417.7 -64 Q 415.1 -61.5 410.7 -61.5 L 410.7 -61.5 L 410.7 -61.5 Q 408.8 -61.5 408 -62.2 Z M 441.7 -51.5 L 441.7 -51.5 L 441.7 -51.5 Q 438.4 -48 432.3 -48 L 432.3 -48 L 432.3 -48 Q 424.7 -48 423.1 -53.6 L 423.1 -53.6 L 423.1 -53.6 Q 422.5 -55.3 422.5 -57.1 L 422.5 -57.1 L 422.5 -57.1 Q 422.5 -59 422.9 -60.9 L 422.9 -60.9 L 425.9 -76.9 L 438.9 -78.2 L 435.4 -59.6 L 435.4 -59.6 Q 435.3 -58.7 435.1 -57.8 L 435.1 -57.8 L 435.1 -57.8 Q 434.9 -56.9 434.9 -56 L 434.9 -56 L 434.9 -56 Q 434.9 -55.1 435.2 -54.5 L 435.2 -54.5 L 435.2 -54.5 Q 435.5 -53.9 436 -53.5 L 436 -53.5 L 436 -53.5 Q 436.8 -53 438.1 -53 L 438.1 -53 L 438.1 -53 Q 439.5 -53 440.7 -54.6 L 440.7 -54.6 L 440.7 -54.6 Q 441.9 -56.3 442.4 -59.2 L 442.4 -59.2 L 446 -76.9 L 458.6 -78.2 L 453.8 -53 L 453.8 -53 Q 451.4 -40.7 446.5 -35.9 L 446.5 -35.9 L 446.5 -35.9 Q 444 -33.4 440.8 -32.4 L 440.8 -32.4 L 440.8 -32.4 Q 437.6 -31.4 433.4 -31.4 L 433.4 -31.4 L 433.4 -31.4 Q 426.7 -31.4 422.9 -33.5 L 422.9 -33.5 L 422.9 -33.5 Q 419 -35.6 419 -39.1 L 419 -39.1 L 419 -39.1 Q 419 -41.8 421 -43.3 L 421 -43.3 L 421 -43.3 Q 423 -44.8 426.1 -44.8 L 426.1 -44.8 L 426.1 -44.8 Q 428.8 -44.8 430.8 -43.6 L 430.8 -43.6 L 430.8 -43.6 Q 432 -42.9 432.6 -42 L 432.6 -42 L 432.6 -42 Q 431.1 -40.7 431.1 -38.6 L 431.1 -38.6 L 431.1 -38.6 Q 431.1 -35.8 433.7 -35.8 L 433.7 -35.8 L 433.7 -35.8 Q 437.9 -35.8 440.3 -45.5 L 440.3 -45.5 L 440.3 -45.5 Q 441 -48.4 441.7 -51.5 Z" fill="url(#editing-gradient-gradient)"></path></g></g><style>text {
  font-size: 64px;
  font-family: Arial Black;
  dominant-baseline: central;
  text-anchor: middle;
}</style></svg>